<svg version="1.0" xmlns="http://www.w3.org/2000/svg" width="100" height="100" xml:space="preserve"><path fill="#646cff" d="m64.14 54.71 4.712-4.713 4.714 4.712-4.713 4.714z"/><path fill="#009688" d="M38.285 10H10l80 80V61.719L38.285 10zm45.048 63.906L26.095 16.667h9.427l47.811 47.812v9.427z"/><path fill="#646cff" d="m54.713 45.29 4.713-4.713 4.714 4.714-4.713 4.713zM78.281 50 90 38.285V10L64.141 35.859l4.713 4.714 14.479-14.479v9.428l-9.767 9.764zM59.427 59.427 35.519 83.333h-9.424l28.619-28.619L50 50 10 90h28.281l25.86-25.859z"/></svg>